<?xml version="1.0" encoding="UTF-8" standalone="no"?>
<svg
   xmlns:dc="http://purl.org/dc/elements/1.1/"
   xmlns:cc="http://creativecommons.org/ns#"
   xmlns:rdf="http://www.w3.org/1999/02/22-rdf-syntax-ns#"
   xmlns:svg="http://www.w3.org/2000/svg"
   xmlns="http://www.w3.org/2000/svg"
   id="svg3390"
   version="1.1"
   width="929.41309"
   height="212.23857"
   viewBox="0 0 929.41305 212.23857">
  <g
     transform="translate(-83.729906,-85.898217)"
     id="g3400">
    <path
       style="display:inline;fill:#f4a901"
       d="m 987.73356,223.15154 c -20.07494,-2.67964 -20.97422,-2.82395 -21.47855,-3.44677 -0.39,-0.48164 -0.48581,-0.90359 -0.36984,-1.62883 0.29225,-1.82765 0.6929,-8.6454 0.69421,-11.81308 0,-3.08705 -0.40514,-9.99375 -0.68779,-11.68858 -0.0966,-0.57939 0.0137,-1.04399 0.34299,-1.44375 0.44848,-0.54457 2.16463,-0.8077 22.53457,-3.45518 15.35805,-1.99609 22.19855,-2.78578 22.54145,-2.60226 0.6105,0.32673 0.7358,0.71575 1.0596,3.28812 0.9658,7.67495 1.0364,21.54382 0.155,30.42252 -0.4899,4.93384 -0.6441,5.2446 -2.5791,5.19612 -0.6932,-0.0174 -10.68884,-1.2901 -22.21254,-2.82831 z"
       id="path3414" />
    <path
       style="display:inline;fill:#05aae7"
       d="m 113.22538,296.59724 c -5.32482,-6.97591 -11.90751,-18.18514 -15.974392,-27.20174 -1.507252,-3.34169 -1.737205,-4.22507 -1.285366,-4.93784 0.388487,-0.61282 41.219918,-17.37499 41.905238,-17.20298 0.45486,0.11416 1.10395,1.18948 2.67856,4.43748 3.0424,6.27567 6.10051,11.45321 9.89654,16.75536 0.77229,1.07871 0.98236,1.59654 0.85444,2.1062 -0.24257,0.96649 -34.78004,27.39193 -35.99593,27.54137 -0.76766,0.0943 -0.9812,-0.0595 -2.07909,-1.49785 z"
       id="path3412" />
    <path
       style="display:inline;fill:#a9c701"
       d="m 85.224991,225.52835 c -1.462185,-1.61569 -2.025973,-22.66759 -0.896163,-33.46279 0.428037,-4.08984 0.649591,-4.86276 1.46838,-5.12263 0.506159,-0.16065 43.406832,5.41487 44.290412,5.75613 0.8863,0.34232 1.01942,1.03338 0.691,3.58707 -0.38807,3.0175 -0.4017,17.23945 -0.0195,20.39958 0.31251,2.58433 0.0629,3.42884 -1.09396,3.7018 -0.85872,0.20261 -42.721055,5.62392 -43.426853,5.62392 -0.316849,0 -0.772819,-0.21738 -1.013266,-0.48308 z"
       id="path3410" />
    <path
       style="display:inline;fill:#c7007b"
       d="m 963.15432,284.62582 c -14.83008,-11.40389 -17.56767,-13.61453 -17.64049,-14.24492 -0.0638,-0.55234 0.33523,-1.33922 1.53611,-3.02894 3.62759,-5.10427 6.99426,-10.87938 9.74246,-16.71205 1.18344,-2.51164 1.65449,-3.24698 2.16168,-3.37427 0.46968,-0.11789 6.11909,2.11248 20.49098,8.08977 10.91339,4.53889 20.19645,8.43555 20.62904,8.65926 1.2279,0.63498 1.2315,1.37385 0.02,4.12706 -3.70597,8.42165 -9.33651,18.28499 -14.93743,26.16684 -2.26104,3.18188 -2.90718,3.84231 -3.74498,3.82799 -0.49717,-0.009 -5.84213,-3.9639 -18.25726,-13.51074 z"
       id="path3408" />
    <path
       style="display:inline;fill:#e5001d"
       d="m 116.785,157.06235 c -10.97053,-4.57561 -20.135106,-8.47587 -20.365712,-8.66726 -0.230606,-0.19138 -0.419284,-0.5841 -0.419284,-0.87269 0,-0.80356 4.045286,-9.30901 6.694856,-14.07633 2.76221,-4.97 5.43677,-9.26663 8.60129,-13.8178 2.6567,-3.82085 3.42558,-4.70316 4.09647,-4.70087 0.2712,8.3e-4 7.89881,5.6901 16.95024,12.6426 19.78129,15.19422 18.78982,14.39479 18.78366,15.14551 -0.003,0.32933 -0.9719,1.97694 -2.15379,3.66135 -3.03517,4.32572 -4.99258,7.66373 -8.01084,13.66103 -2.46202,4.89206 -2.67696,5.22316 -3.42857,5.2815 -0.53168,0.0413 -7.52308,-2.74104 -20.74832,-8.25704 z"
       id="path3406" />
    <path
       style="display:inline;fill:#008663"
       d="m 958.59092,165.20411 c -0.2338,-0.27255 -1.42392,-2.53211 -2.64472,-5.02125 -2.46039,-5.01658 -5.6906,-10.52462 -8.41837,-14.35467 -1.11802,-1.56983 -1.79043,-2.78608 -1.79051,-3.23867 -1.1e-4,-0.63593 2.14327,-2.3663 17.48557,-14.11628 12.75001,-9.76463 17.7173,-13.41961 18.34072,-13.49527 0.80536,-0.0977 0.97487,0.0611 2.91758,2.73341 5.72105,7.86978 12.00963,18.8761 15.83351,27.71216 0.8456,1.9538 0.8822,2.15594 0.497,2.74285 -0.313,0.47699 -5.37244,2.68273 -20.46786,8.92333 -11.02859,4.55935 -20.33906,8.36177 -20.68992,8.44982 -0.42591,0.1069 -0.77914,-0.005 -1.063,-0.33543 z"
       id="path3404" />
    <path
       style="display:inline;fill:#010101"
       d="m 221.74593,271.55046 c -15.59761,-1.38386 -31.10316,-9.83348 -41.58257,-22.66008 -5.7039,-6.98145 -10.35832,-16.72335 -12.43354,-26.02389 -1.27189,-5.70028 -1.59288,-8.83148 -1.61773,-15.78078 -0.0411,-11.5083 1.87706,-20.24319 6.5354,-29.76 8.54693,-17.46102 24.26168,-29.58206 44.44966,-34.28469 7.04821,-1.64183 18.205,-2.23428 26.19429,-1.39099 31.26015,3.29963 54.42062,22.47398 60.22,49.85566 1.35484,6.3967 1.31713,5.29032 1.42078,41.70147 0.0687,24.12259 0.0102,34.37592 -0.1985,34.76571 -0.29242,0.54638 -0.52592,0.55284 -19.97994,0.55284 -14.9441,0 -19.76331,-0.0793 -20.0132,-0.32914 -0.25181,-0.25181 -0.32936,-7.09896 -0.33008,-29.14286 -5.5e-4,-17.9161 -0.10978,-30.00669 -0.28873,-31.968 -0.54864,-6.01316 -2.19768,-11.69753 -4.66413,-16.07763 -1.59139,-2.82612 -5.9071,-7.23809 -8.66413,-8.85738 -6.93742,-4.07457 -17.15063,-5.04532 -24.99856,-2.37608 -9.32006,3.16996 -16.18144,10.52823 -18.49105,19.83014 -0.46857,1.88716 -0.59881,3.23558 -0.60334,6.24667 -0.006,4.2974 0.43854,6.96849 1.77735,10.66849 3.0076,8.3119 10.4639,15.00848 19.31638,17.34824 4.99617,1.32051 13.18327,0.89867 20.43429,-1.05287 1.73486,-0.46692 3.51926,-0.86195 3.96533,-0.87783 1.53557,-0.0547 1.52611,-0.16473 1.45137,16.87962 -0.0634,14.46391 -0.10189,15.57437 -0.55699,16.0771 -0.79752,0.881 -6.16833,3.51406 -8.97399,4.39955 -2.99891,0.94647 -5.99901,1.57489 -9.32572,1.95341 -3.4816,0.39615 -10.22798,0.55304 -13.04265,0.30332 z m 488.37981,-0.56551 C 678.7418,268.04974 656.97408,250.83452 650.31107,223.68 c -0.44417,-1.81029 -1.08087,-4.95771 -1.41487,-6.99429 l -0.60724,-3.70285 -0.0823,-61.71329 c -0.0774,-58.025985 -0.0542,-61.73384 0.38795,-62.057146 0.36642,-0.26793 4.74915,-0.343853 19.84959,-0.343853 18.42608,0 19.40169,0.02469 19.8333,0.501598 0.4193,0.463318 0.45395,4.80562 0.45395,56.900241 0,48.54116 0.0573,56.83567 0.4112,59.53554 1.22771,9.36546 5.47113,17.52147 11.71546,22.51755 4.96257,3.97055 10.61601,5.91697 17.18365,5.91612 8.25632,-0.001 15.59086,-3.06077 20.94667,-8.73822 2.29778,-2.43576 3.28137,-3.8836 4.74454,-6.98395 3.84634,-8.15005 3.55088,-18.80936 -0.735,-26.51745 -5.46303,-9.82518 -16.19879,-15.09737 -28.55076,-14.02088 -4.2031,0.36631 -7.70959,1.0586 -10.63005,2.09872 -2.92932,1.04328 -3.58044,1.1282 -4.02182,0.52457 -0.29697,-0.40613 -0.36675,-3.80066 -0.36675,-17.84383 0,-9.53826 0.0767,-17.54212 0.17041,-17.78637 0.20893,-0.54448 1.21054,-0.97457 4.38084,-1.88116 15.39168,-4.40141 33.22014,-2.41595 48.58747,5.41094 16.42203,8.36406 28.03622,22.74938 32.43936,40.17935 3.83311,15.17352 2.29975,32.29852 -4.11986,46.01227 -8.33233,17.79967 -24.35004,30.26443 -44.70393,34.78796 -5.26462,1.17003 -9.09211,1.55771 -16.32,1.65303 -3.92229,0.0517 -8.30401,-0.0156 -9.73715,-0.14965 z m 147.22566,-0.13244 c -26.63363,-3.22386 -47.97833,-21.35765 -54.93342,-46.66971 -1.82995,-6.65985 -2.17671,-9.50578 -2.18337,-17.91994 -0.007,-8.09663 0.23517,-10.45742 1.68093,-16.4238 3.80234,-15.69146 13.50602,-29.47428 26.97592,-38.31578 15.34557,-10.07268 34.92798,-13.2479 53.21143,-8.62804 23.01227,5.81474 40.65104,23.34076 46.48257,46.18546 1.34548,5.27084 1.83711,8.97463 1.99455,15.02661 0.22505,8.6506 -0.73953,15.52164 -3.24831,23.1384 -4.37203,13.27381 -12.9227,24.69361 -24.38309,32.56473 -8.90683,6.11732 -18.71197,9.74346 -29.89547,11.05595 -4.11997,0.48352 -11.64747,0.47687 -15.70174,-0.0139 z m 15.28863,-37.55689 c 9.56997,-2.81824 16.42314,-9.90338 18.98444,-19.62705 0.84815,-3.21984 1.13667,-8.696 0.63788,-12.10719 -1.66979,-11.41989 -9.71032,-20.34067 -20.7724,-23.04655 -3.64328,-0.89118 -9.12312,-0.82966 -12.8189,0.1439 -9.76117,2.57135 -16.88569,9.78908 -19.66684,19.92413 -0.81142,2.95704 -1.01469,9.6695 -0.39308,12.98095 2.21856,11.81881 11.14034,20.62855 22.78319,22.49711 0.45257,0.0726 2.61257,0.0937 4.8,0.0469 3.33402,-0.0714 4.37631,-0.20275 6.44571,-0.81216 z m -547.2823,34.90095 c -0.43894,-0.43893 -0.47666,-77.32843 -0.0399,-81.35024 1.3254,-12.20496 5.81565,-22.38034 13.34233,-30.23503 7.54148,-7.87015 16.95228,-12.68711 28.74558,-14.7136 4.00347,-0.68793 13.92894,-0.69158 17.14286,-0.006 9.23788,1.96971 18.13997,7.09503 25.776,14.84039 1.12764,1.14381 2.15125,2.07964 2.27468,2.07964 0.12342,0 0.80538,-0.63342 1.51545,-1.40759 2.01422,-2.19611 7.05674,-6.42709 9.98348,-8.37677 5.12958,-3.41712 10.69095,-5.81783 16.40467,-7.08152 2.77737,-0.61426 10.10675,-0.84485 13.73643,-0.43217 23.35356,2.65523 40.326,17.93852 44.79629,40.33805 0.37634,1.88572 0.81413,5.08867 0.97291,7.11769 0.39418,5.03763 0.39857,78.29017 0.005,79.02606 -0.27668,0.51696 -0.78767,0.53054 -19.968,0.53054 -14.9441,0 -19.76333,-0.0793 -20.01321,-0.32915 -0.25259,-0.25258 -0.32919,-8.53054 -0.32936,-35.58857 -1.6e-4,-21.87901 -0.10653,-36.38022 -0.28032,-38.21289 -0.7954,-8.38773 -4.38476,-12.92357 -11.04639,-13.95923 -5.76499,-0.89627 -10.83091,1.77375 -13.35423,7.03841 -2.17501,4.53792 -2.02744,1.54086 -2.12607,43.18105 -0.0625,26.38485 -0.17497,37.25159 -0.38823,37.50857 -0.43027,0.51843 -39.58447,0.53702 -39.91979,0.019 -0.12203,-0.18858 -0.28526,-17.25258 -0.36269,-37.92 l -0.14081,-37.57715 -0.63292,-2.05519 c -1.79443,-5.82697 -5.22777,-9.24636 -10.19405,-10.15268 -3.27623,-0.5979 -7.19138,0.17062 -9.71514,1.90703 -1.15902,0.79742 -2.55994,2.34212 -3.49967,3.85889 -0.7378,1.1908 -1.79608,4.44204 -2.11397,6.49449 -0.21304,1.3755 -0.3055,12.98297 -0.3055,38.34946 0,24.55101 -0.0923,36.5494 -0.28394,36.90746 -0.27668,0.51697 -0.78767,0.53054 -19.968,0.53054 -14.94411,0 -19.76333,-0.0793 -20.01321,-0.32914 z m 197.16623,-0.2014 c -0.19329,-0.36116 -0.28394,-20.05722 -0.28394,-61.69469 0,-55.23806 0.0418,-61.20592 0.43101,-61.59517 0.38378,-0.38377 2.57283,-0.43102 19.968,-0.43102 14.82973,0 19.61629,0.0793 19.86613,0.32914 0.47915,0.47914 0.47915,123.114 0,123.59314 -0.24987,0.24989 -5.0691,0.32914 -20.0132,0.32914 -19.18033,0 -19.69133,-0.0136 -19.968,-0.53054 z m 62.85663,-0.0729 c -0.47915,-0.47915 -0.47915,-123.114 0,-123.59315 C 585.63047,144.07926 590.4497,144 605.3938,144 c 19.18033,0 19.69133,0.0136 19.968,0.53054 0.19329,0.36115 0.28394,20.00174 0.28394,61.51611 0,54.75278 -0.0436,61.04788 -0.42698,61.59518 l -0.42698,0.6096 -19.54102,0 c -14.83285,0 -19.62032,-0.0793 -19.87017,-0.32914 z M 538.07558,132.06435 c -7.55904,-1.43294 -14.04055,-6.64625 -16.82088,-13.52964 -1.34342,-3.32603 -1.61543,-4.87933 -1.61661,-9.23185 0,-3.46765 0.0975,-4.45916 0.62669,-6.30857 1.84271,-6.440587 5.93434,-11.430428 11.71238,-14.283606 3.72277,-1.838282 6.11306,-2.376134 10.56,-2.376134 4.55331,0 6.83087,0.534366 10.97143,2.57413 2.53758,1.250093 3.19134,1.731539 5.49866,4.049335 2.28047,2.29084 2.80337,3.002488 4.04882,5.510556 1.58965,3.201189 2.21828,5.368419 2.50563,8.637929 1.00487,11.43451 -5.56203,21.2697 -16.30454,24.41922 -3.12471,0.91611 -7.96125,1.1491 -11.18158,0.53863 z m 64.25587,-0.15904 c -2.82882,-0.33258 -5.44855,-1.16677 -8.36571,-2.66389 -1.96142,-1.00661 -2.98143,-1.77614 -4.9649,-3.74558 -2.89169,-2.87127 -4.37577,-5.21366 -5.56732,-8.78727 -2.65067,-7.94952 -1.10167,-16.68983 4.0407,-22.799713 4.07103,-4.836982 9.85314,-7.631419 16.50295,-7.975713 14.13701,-0.731948 25.05589,10.129432 24.32064,24.192566 -0.19025,3.63905 -0.71668,5.82273 -2.14884,8.91376 -3.56914,7.70322 -10.7023,12.43304 -19.56609,12.97381 -1.20686,0.0736 -3.12,0.025 -4.25143,-0.10797 z"
       id="path3402" />
  </g>
</svg>
